<svg clip-rule="evenodd" fill-rule="evenodd" stroke-linejoin="round" stroke-miterlimit="2" viewBox="0 0 917 317" xmlns="http://www.w3.org/2000/svg" xmlns:xlink="http://www.w3.org/1999/xlink"><clipPath id="a"><path clip-rule="evenodd" d="m181.859 240.779h916.283v316.354h-916.283z"/></clipPath><g transform="translate(-181.859 -240.779)"><path d="m181.859 240.779h916.283v316.354h-916.283z" fill="none"/><g clip-path="url(#a)" fill-rule="nonzero"><path d="m.051-0 .3-.741h.004l.3.741h-.055l-.261-.663.034-.019-.273.682zm.145-.281h.315l.014.046h-.341z" fill="#fff" transform="matrix(179.17112481 0 0 179.17112481 173.579329 374.32369)"/><path d="m.049-.708h.056l.235.642-.011-.003.148-.4.023.063-.171.439zm.327 0h.049l.244.642-.015-.004.238-.638h.052l-.285.74z" fill="#fff" transform="matrix(179.17112481 0 0 179.17112481 354.54269887 374.32369)"/><path d="m.113-.71h.438v.047h-.389v.282h.35v.047h-.35v.287h.403v.047h-.452z" fill="#fff" transform="matrix(179.17112481 0 0 179.17112481 530.8471402 374.32369)"/><path d="m.113-.71h.438v.047h-.389v.282h.35v.047h-.35v.287h.403v.047h-.452z" fill="#fff" transform="matrix(179.17112481 0 0 179.17112481 643.90395754 374.32369)"/><path d="m.163-.39-.002.035.003-.009.351-.346h.063l-.294.291.327.419h-.062l-.301-.388-.086.082.001.306h-.05v-.71h.05z" fill="#fff" transform="matrix(179.17112481 0 0 179.17112481 756.96191065 374.32369)"/><path d="m.113-.71h.049v.71h-.049z" fill="#fff" transform="matrix(179.17112481 0 0 179.17112481 925.74073996 374.32369)"/><path d="m.707.017-.56-.631.013-.01.001.624h-.048v-.725h.003l.56.636-.013.004-.001-.625h.047v.727z" fill="#fff" transform="matrix(179.17112481 0 0 179.17112481 971.96657896 374.32369)"/><g fill="#ffb000"><path d="m.117.087c-.02 0-.039-.005-.056-.016-.018-.011-.027-.024-.027-.041 0-.009.002-.018.005-.028s.005-.019.008-.028c.021-.063.04-.123.058-.178s.036-.108.055-.159c.018-.05.037-.102.058-.153.02-.051.043-.105.068-.161-.025.005-.047.012-.065.02-.018.009-.033.016-.044.022-.011.007-.02.01-.025.01-.003 0-.008-.002-.014-.007-.007-.005-.012-.01-.017-.016s-.007-.011-.007-.016c.019-.008.041-.016.066-.025.024-.009.052-.016.081-.022s.059-.009.088-.009c.031 0 .063.004.096.012.033.009.063.021.091.037.027.017.05.037.067.061.017.025.025.053.025.086 0 .035-.008.066-.024.091s-.037.047-.063.064c-.027.017-.055.031-.086.042s-.061.019-.091.024c-.031.005-.058.009-.082.011s-.042.003-.054.003h-.006c-.019.066-.037.132-.055.197-.018.066-.035.126-.05.179zm.114-.407c.037-.003.075-.009.112-.019s.071-.024.102-.042c.03-.017.054-.039.073-.066.018-.027.027-.058.027-.093 0-.033-.009-.06-.026-.081-.018-.021-.041-.036-.068-.047-.028-.011-.057-.016-.088-.017-.024.047-.047.102-.069.165-.022.064-.043.131-.063.2z" transform="matrix(241.557621741 -27.1675493154 -12.3283721898 242.944093503 256.623025 539.784926)"/><path d="m.056.047c-.022 0-.041-.007-.058-.022-.016-.015-.024-.037-.024-.066 0-.023.005-.049.016-.076s.025-.054.044-.081.04-.051.064-.073c.024-.021.05-.039.077-.052s.055-.02.082-.02c.029 0 .053.007.073.022s.03.034.03.058c0 .018-.006.031-.019.039s-.028.01-.045.007c.001-.006.003-.012.004-.018s.001-.012.001-.019c0-.013-.003-.025-.008-.036s-.017-.016-.034-.016c-.019 0-.038.006-.057.019s-.038.029-.055.049c-.018.021-.034.043-.048.067-.014.025-.025.049-.033.072s-.012.044-.012.063c0 .021.008.032.023.032s.032-.008.051-.023.038-.033.057-.056.037-.046.054-.07c.017-.023.032-.043.045-.06.002-.003.005-.005.008-.005.003.001.008.002.016.004.007.003.014.006.021.011s.01.011.01.018-.003.015-.008.025c-.006.011-.013.022-.02.034-.008.013-.015.025-.02.037-.006.013-.009.025-.009.036 0 .009.002.017.007.024.005.008.012.012.023.012.016 0 .039-.012.068-.036.029-.023.058-.063.088-.12l.019.019c-.016.036-.035.068-.057.095-.023.028-.046.05-.071.066-.025.015-.05.023-.075.023-.027 0-.048-.009-.061-.026s-.021-.036-.022-.056v-.005c-.027.032-.051.057-.073.076-.023.019-.047.028-.072.028z" transform="matrix(241.557621741 -27.1675493154 -12.3283721898 242.944093503 365.56577293 527.532331958)"/><path d="m.185.026c-.025 0-.045-.006-.06-.019-.015-.014-.023-.031-.023-.053 0-.019.005-.039.014-.06s.019-.042.029-.063c.009-.021.014-.039.014-.055 0-.015-.005-.028-.015-.039-.01-.01-.022-.018-.035-.025-.015.037-.031.072-.049.106-.019.035-.034.062-.045.081l-.015-.029c.009-.017.022-.042.037-.074s.03-.068.044-.107c-.007-.007-.01-.016-.01-.027 0-.017.005-.034.016-.049s.021-.023.031-.023c.008 0 .014.004.018.013.003.009.005.016.005.019s-.001.009-.004.018-.006.015-.007.019c.001.007.006.014.018.021.011.007.023.016.037.025s.026.021.037.035.016.032.016.053c0 .019-.004.039-.013.059s-.017.039-.026.056-.013.032-.013.045c0 .009.003.015.008.018.005.004.01.005.017.005.016 0 .033-.005.05-.015.017-.009.034-.022.051-.037s.031-.032.044-.049c.013-.016.022-.032.029-.046l.024.018c-.013.029-.031.057-.055.084-.024.028-.051.051-.08.068-.029.018-.059.027-.089.027z" transform="matrix(241.557621741 -27.1675493154 -12.3283721898 242.944093503 470.88596083 515.687160698)"/><path d="m.056.047c-.022 0-.041-.007-.058-.022-.016-.015-.024-.037-.024-.066 0-.023.005-.049.016-.076s.025-.054.044-.081.04-.051.064-.073c.024-.021.05-.039.077-.052s.055-.02.082-.02c.029 0 .053.007.073.022s.03.034.03.058c0 .018-.006.031-.019.039s-.028.01-.045.007c.001-.006.003-.012.004-.018s.001-.012.001-.019c0-.013-.003-.025-.008-.036s-.017-.016-.034-.016c-.019 0-.038.006-.057.019s-.038.029-.055.049c-.018.021-.034.043-.048.067-.014.025-.025.049-.033.072s-.012.044-.012.063c0 .021.008.032.023.032s.032-.008.051-.023.038-.033.057-.056.037-.046.054-.07c.017-.023.032-.043.045-.06.002-.003.005-.005.008-.005.003.001.008.002.016.004.007.003.014.006.021.011s.01.011.01.018-.003.015-.008.025c-.006.011-.013.022-.02.034-.008.013-.015.025-.02.037-.006.013-.009.025-.009.036 0 .009.002.017.007.024.005.008.012.012.023.012.016 0 .039-.012.068-.036.029-.023.058-.063.088-.12l.019.019c-.016.036-.035.068-.057.095-.023.028-.046.05-.071.066-.025.015-.05.023-.075.023-.027 0-.048-.009-.061-.026s-.021-.036-.022-.056v-.005c-.027.032-.051.057-.073.076-.023.019-.047.028-.072.028z" transform="matrix(241.557621741 -27.1675493154 -12.3283721898 242.944093503 554.94587839 506.233093634)"/><path d="m.069.03c-.013 0-.025-.003-.038-.009-.014-.007-.024-.017-.034-.03-.009-.013-.013-.03-.013-.051 0-.022.005-.047.016-.074s.025-.055.044-.082c.018-.027.039-.052.064-.075.024-.023.05-.041.077-.055s.055-.021.083-.021c.015 0 .027.002.036.007s.013.014.013.025c0 .003-.001.007-.002.011-.001.005-.005.009-.01.012-.003-.004-.007-.007-.014-.009-.007-.001-.014-.002-.021-.002-.022 0-.043.006-.063.018-.02.013-.038.029-.055.048s-.031.04-.043.063c-.013.023-.022.044-.029.065s-.01.04-.01.055c0 .013.003.023.008.03.005.008.013.012.024.012.018 0 .039-.011.065-.032.025-.021.05-.051.077-.091.026-.039.05-.087.071-.142.015-.038.03-.077.046-.117.016-.039.032-.077.048-.114s.032-.069.048-.098c.015-.029.03-.052.045-.069.014-.017.027-.025.039-.025.007 0 .014.003.02.008.005.006.008.013.008.022 0 .011-.005.029-.016.054s-.025.055-.042.09-.036.072-.055.112c-.02.041-.038.082-.055.124-.017.043-.031.084-.042.125-.012.042-.017.08-.017.116 0 .016.001.027.005.032.003.006.008.009.015.009.015 0 .031-.006.049-.017s.036-.028.055-.051c.019-.022.036-.049.051-.08l.019.016c-.015.037-.033.069-.056.097s-.047.05-.073.066c-.026.015-.052.023-.077.023-.027 0-.046-.009-.057-.026s-.016-.038-.016-.061c0-.011.001-.022.003-.033.001-.011.003-.021.005-.032-.021.03-.042.057-.065.08-.023.024-.046.043-.068.056s-.043.02-.063.02z" transform="matrix(241.557621741 -27.1675493154 -12.3283721898 242.944093503 660.26606629 494.387922374)"/><path d="m.08.03c-.029 0-.051-.009-.066-.026s-.022-.038-.022-.063c0-.015.003-.035.008-.058s.013-.048.023-.074c.009-.025.02-.049.033-.072s.027-.041.041-.056c.015-.014.029-.021.044-.021.008 0 .015.002.021.007s.009.012.009.022c0 .009-.005.022-.015.039-.01.018-.022.038-.036.06-.014.023-.026.046-.036.07-.011.025-.016.048-.016.07 0 .021.004.035.012.042.007.007.018.011.033.011.023 0 .047-.011.074-.034s.054-.062.083-.119l.015.016c-.023.059-.053.104-.089.137s-.075.049-.116.049zm.118-.451c-.013 0-.024-.003-.034-.009-.011-.007-.016-.016-.016-.03 0-.016.009-.03.026-.041s.035-.017.054-.017c.012 0 .022.003.031.008.008.005.012.015.012.029s-.008.028-.023.041-.032.019-.05.019z" transform="matrix(241.557621741 -27.1675493154 -12.3283721898 242.944093503 774.5225908 481.53769748)"/><path d="m.117.051c-.033 0-.06-.007-.08-.02-.021-.014-.035-.032-.044-.053s-.013-.042-.013-.064c0-.019.003-.034.008-.045s.012-.019.02-.024.016-.008.023-.011.012-.006.015-.009c.017-.017.034-.038.052-.061.017-.023.032-.048.045-.076v-.01c0-.027.005-.046.014-.057s.019-.016.031-.016c.008 0 .014.002.018.006.003.004.005.009.006.014 0 .004-.001.009-.002.014-.002.005-.003.013-.003.022 0 .02.005.043.015.068.009.026.019.053.029.082.009.029.014.058.014.088 0 .008 0 .015-.001.022s-.002.013-.003.019c.021-.005.041-.017.061-.035.02-.017.039-.043.057-.078l.012.009c-.013.038-.031.069-.055.091-.024.024-.052.038-.084.043-.011.027-.028.048-.052.061-.025.013-.052.02-.083.02zm-.007-.044c.013 0 .026-.003.037-.01s.02-.016.027-.029c-.027-.006-.052-.017-.074-.032s-.039-.031-.051-.047c-.009.002-.014.011-.014.027 0 .022.006.043.019.062.013.019.031.029.056.029zm.072-.069c.001-.005.002-.01.003-.017 0-.006 0-.011 0-.014-.001-.03-.005-.06-.012-.089s-.015-.059-.022-.09c-.012.021-.026.043-.042.067s-.031.043-.045.058c.011.018.026.035.047.051s.044.027.071.034z" transform="matrix(241.557621741 -27.1675493154 -12.3283721898 242.944093503 832.73917027 474.990183962)"/><path d="m.116.044c-.043 0-.075-.012-.098-.034-.024-.024-.035-.052-.035-.087 0-.029.007-.06.023-.094.015-.033.035-.064.06-.093s.053-.052.084-.07.061-.027.092-.027c.017 0 .034.004.05.013.015.009.023.027.023.054 0 .025-.007.049-.022.071s-.034.042-.059.059-.052.031-.081.042c-.03.011-.06.019-.09.022-.001.003-.001.006-.001.008-.001.003-.001.008-.001.015 0 .003.001.009.002.017.001.009.003.018.008.027s.012.017.023.024.025.01.044.01c.028 0 .056-.008.085-.024.028-.015.055-.036.08-.062s.045-.055.062-.087l.02.016c-.018.04-.041.075-.069.105-.029.03-.06.053-.094.07-.035.017-.07.025-.106.025zm-.042-.181c.017-.002.037-.008.058-.018s.042-.023.062-.038c.019-.015.035-.032.048-.051.013-.018.019-.036.019-.055 0-.007-.001-.012-.004-.015s-.007-.004-.013-.004c-.015 0-.031.005-.048.016s-.033.026-.049.043c-.016.018-.03.038-.043.059s-.023.042-.03.063z" transform="matrix(241.557621741 -27.1675493154 -12.3283721898 242.944093503 916.07612503 465.617427218)"/></g></g></g></svg>